<svg width="75" height="76" viewBox="0 0 75 76" fill="none" xmlns="http://www.w3.org/2000/svg">
<path d="M9.77853 43.2661L17.0348 24.6942L24.0373 43.2661H9.77853ZM15.2588 21.2437L0.695557 57.4741H4.34904L8.71293 46.2092H25.2044L29.619 57.4741H33.3232L19.1152 21.2437H15.2588Z" fill="#06281E"/>
<path d="M15.2249 21.2437V57.4741H38.9725V54.531H18.6754V21.2437H15.2249Z" fill="#06281E"/>
<path d="M27.5555 21.2437V44.4332C27.5555 46.2937 27.8092 48.0697 28.3166 49.7612C28.8579 51.4188 29.6867 52.8734 30.803 54.1251C31.9532 55.3767 33.4078 56.3747 35.1669 57.1189C36.9598 57.8293 39.1079 58.1845 41.6113 58.1845C44.1484 58.1845 46.2965 57.8293 48.0556 57.1189C49.8485 56.3747 51.3031 55.3767 52.4195 54.1251C53.5697 52.8734 54.3985 51.4188 54.9059 49.7612C55.4471 48.0697 55.7178 46.2937 55.7178 44.4332V21.2437H52.2673V43.672C52.2673 45.7694 52.0305 47.5623 51.5569 49.0508C51.0833 50.5054 50.3898 51.7063 49.4764 52.6535C48.563 53.5669 47.4467 54.2435 46.1274 54.6832C44.8081 55.0892 43.3027 55.2921 41.6113 55.2921C39.9537 55.2921 38.4652 55.0892 37.1459 54.6832C35.8266 54.2435 34.7102 53.5669 33.7969 52.6535C32.8835 51.7063 32.19 50.5054 31.7164 49.0508C31.2428 47.5623 31.006 45.7694 31.006 43.672V21.2437H27.5555Z" fill="#06281E"/>
<path d="M41.3405 21.2437L53.3666 53.0087L65.8493 21.2437H70.9236V57.4741H67.4731V26.1657H67.3716L54.9904 57.4741H51.7428L39.8182 26.1657H39.7167V57.4741H36.2662V21.2437H41.3405Z" fill="#06281E"/>
</svg>
